<?xml version="1.0" encoding="iso-8859-1"?>
<!-- Generator: Adobe Illustrator 19.0.0, SVG Export Plug-In . SVG Version: 6.00 Build 0)  -->
<svg version="1.1" id="Capa_1" 
	xmlns="http://www.w3.org/2000/svg" 
	xmlns:xlink="http://www.w3.org/1999/xlink" x="30px" y="30px" viewBox="-60 -60 700 700" style="enable-background:new 0 0 800 800;" xml:space="preserve">
	<style>
		.mycolors: {stroke: black; fill: red;}
	</style>
	<g>
		<g>
			<path class="mycolors" stroke="red" d="M461.069,353.37c-1.859-1.87-4.439-2.93-7.069-2.93s-5.21,1.06-7.07,2.93c-1.86,1.86-2.93,4.44-2.93,7.07
			s1.069,5.21,2.93,7.07c1.861,1.86,4.44,2.93,7.07,2.93s5.21-1.07,7.069-2.93c1.86-1.86,2.931-4.44,2.931-7.07
			S462.93,355.23,461.069,353.37z"/>
		</g>
	</g>
	<g>
		<g>
			<path class="mycolors" d="M462,54h-48V30c0-16.542-13.458-30-30-30s-30,13.458-30,30v24h-68V30c0-16.542-13.458-30-30-30s-30,13.458-30,30v24h-68
			V30c0-16.542-13.458-30-30-30S98,13.458,98,30v24H50C22.43,54,0,76.43,0,104v358c0,27.57,22.43,50,50,50h412
			c27.57,0,50-22.43,50-50V104C512,76.43,489.57,54,462,54z M374,30c0-5.514,4.486-10,10-10c5.514,0,10,4.486,10,10v64
			c0,5.514-4.486,10-10,10c-5.514,0-10-4.486-10-10V30z M246,30c0-5.514,4.486-10,10-10c5.514,0,10,4.486,10,10v64
			c0,5.514-4.486,10-10,10c-5.514,0-10-4.486-10-10V30z M118,30c0-5.514,4.486-10,10-10c5.514,0,10,4.486,10,10v64
			c0,5.514-4.486,10-10,10c-5.514,0-10-4.486-10-10V30z M492,161H97c-5.522,0-10,4.477-10,10s4.478,10,10,10h395v281
			c0,15.869-12.388,28.892-28,29.926v-83.621c0-5.523-4.478-10-10-10c-5.522,0-10,4.477-10,10V492H50c-16.542,0-30-13.458-30-30V104
			c0-16.542,13.458-30,30-30h48v20c0,16.542,13.458,30,30,30s30-13.458,30-30V74h68v20c0,16.542,13.458,30,30,30s30-13.458,30-30V74
			h68v20c0,16.542,13.458,30,30,30s30-13.458,30-30V74h48c16.542,0,30,13.458,30,30V161z"/>
		</g>
	</g>
	<g>
		<g>
			<path d="M63.069,163.93C61.21,162.07,58.63,161,56,161s-5.21,1.07-7.07,2.93S46,168.37,46,171s1.069,5.21,2.93,7.07
			c1.861,1.86,4.44,2.93,7.07,2.93s5.21-1.07,7.069-2.93C64.93,176.21,66,173.63,66,171S64.93,165.79,63.069,163.93z"/>
		</g>
	</g>
	<g>
		<g>
			<path d="M256,206.5c-72.51,0-131.5,58.991-131.5,131.5S183.49,469.5,256,469.5S387.5,410.509,387.5,338S328.51,206.5,256,206.5z
			 M256,449.5c-61.481,0-111.5-50.019-111.5-111.5S194.519,226.5,256,226.5S367.5,276.519,367.5,338S317.481,449.5,256,449.5z"/>
		</g>
	</g>
	<g>
		<g>
			<path d="M336.427,328.269c3.667-6.582,5.765-14.152,5.765-22.206c0.001-25.245-20.536-45.782-45.78-45.782
			c-25.244,0-45.781,20.538-45.781,45.781c0,11.612,4.354,22.221,11.504,30.301c-2.906-0.213-5.298-1.018-6.536-2.728
			c-8.234-11.371-16.921-14.311-22.758-14.774c-6.896-0.544-13.802,2.08-18.93,7.208c-2.543,2.542-4.714,6.517-5.724,11.327
			c-6.195,0.522-12.451,2.923-18.358,7.163c-12.344,8.861-20.385,23.621-20.011,36.728c0.46,16.097,12.247,24.811,23.004,26.095
			c8.563,1.017,15.582-2.851,17.479-9.646c0.214-0.596,0.745-1.471,1.356-2.283c7.462,13.469,22.68,24.944,45.392,24.943
			c11.365,0,24.609-2.875,39.693-9.81c20.855-9.589,34.391-26.786,39.143-49.733c3.478-16.797,0.93-30.886,0.819-31.478
			C336.633,328.996,336.537,328.629,336.427,328.269z M288.388,392.415c-33.238,15.282-52.571,6.249-59.581-7.3
			c-5.875-11.361-14.571-11.733-18.03-11.366c-8.263,0.876-14.224,7.588-17.4,13.222c-0.487-0.233-0.998-0.55-1.476-0.976
			c-1.338-1.192-2.021-2.919-2.089-5.28c-0.181-6.332,4.95-15.077,11.682-19.91c2.053-1.475,5.66-3.56,9.498-3.492
			c5.112,10.347,17.317,22.277,45.356,29.956c0.885,0.242,1.773,0.357,2.647,0.357c4.394,0,8.423-2.918,9.639-7.361
			c1.459-5.327-1.677-10.827-7.003-12.286c-18.123-4.963-30.276-12.617-33.343-21c-1.329-3.633-0.464-6.24-0.076-6.921
			c0.709-0.664,1.755-1.364,3.047-1.26c2.25,0.179,5.294,2.634,8.143,6.567c14.019,19.357,44.502,7.861,49.426,5.837
			c2.469,0.414,5.001,0.64,7.586,0.64c7.646,0,14.855-1.894,21.198-5.223C316.825,360.593,311.54,381.77,288.388,392.415z
			 M296.412,331.843c-14.216,0-25.781-11.565-25.781-25.781c0-14.216,11.565-25.781,25.781-25.781
			c14.216,0,25.781,11.565,25.781,25.781C322.193,320.277,310.628,331.843,296.412,331.843z"/>
		</g>
	</g>

</svg>
